<svg xmlns="http://www.w3.org/2000/svg" viewBox="0 0 157.23 27.22"><defs><style>.cls-1{fill:#f9e700;}</style></defs><title>Resurs 1</title><g id="Lager_2" data-name="Lager 2"><g id="Lager_1-2" data-name="Lager 1"><path class="cls-1" d="M27.22,26.68H20.48v-2.1a10.92,10.92,0,0,1-7.28,2.64A13.14,13.14,0,0,1,3.34,22.8,14,14,0,0,1,0,13.64C0,5.93,5.71,0,12.83,0a12,12,0,0,1,7.65,2.64V.54h6.74Zm-7-17a8,8,0,0,0-6.47-3.23C9.65,6.47,7,9.86,7,13.64a6.83,6.83,0,0,0,6.9,7.11,7.66,7.66,0,0,0,6.31-3.23Z"/><path class="cls-1" d="M30,26.68V.54h6.74v2.1A10.39,10.39,0,0,1,43.8,0a11.39,11.39,0,0,1,8.79,4.1A13,13,0,0,1,61.86,0,11.92,11.92,0,0,1,71,4.2c1.67,2,2.64,4.74,2.64,8.62V26.68h-7V12.56c0-2.37-.48-3.56-1.29-4.47a5.25,5.25,0,0,0-3.94-1.62,8.16,8.16,0,0,0-6.31,3.45,23.05,23.05,0,0,1,.22,2.91V26.68h-7V12.56c0-2.37-.48-3.56-1.29-4.47A5.25,5.25,0,0,0,43.1,6.47,8.07,8.07,0,0,0,37,9.7v17Z"/><path class="cls-1" d="M101.16.54V26.68H94.43v-2.1a10.39,10.39,0,0,1-7.06,2.64A11.45,11.45,0,0,1,78.47,23c-1.67-2-2.64-4.74-2.64-8.62V.54h7V14.66c0,2.37.48,3.56,1.29,4.47a5.25,5.25,0,0,0,3.93,1.62,8.07,8.07,0,0,0,6.09-3.23V.54Z"/><path class="cls-1" d="M106.21,18.7a11,11,0,0,0,7.17,2.59c1.89,0,3.34-.92,3.34-2.21,0-3.93-12.67-2.53-12.67-10.94,0-5,4.85-8.14,10-8.14a16.22,16.22,0,0,1,8.84,2.64l-3.29,5.07a8.82,8.82,0,0,0-5-1.78c-1.94,0-3.56.76-3.56,2.1,0,3.4,12.67,2,12.67,11.1,0,5-4.9,8.08-10.4,8.08a18.08,18.08,0,0,1-10.51-3.5Z"/><path class="cls-1" d="M149.23,22.53a14.19,14.19,0,0,1-10.73,4.69c-7.82,0-13.69-5.39-13.69-13.58,0-7.28,5-13.64,12.72-13.64,7.22,0,12.34,6.09,12.34,13.37a11.55,11.55,0,0,1-.16,2H131.6a6.86,6.86,0,0,0,7.06,6.2,9.25,9.25,0,0,0,6.58-3ZM142.7,10.24a5.21,5.21,0,0,0-5.17-4.58,5.67,5.67,0,0,0-5.6,4.58Z"/><path class="cls-1" d="M152.6.54V.89h-1.21V4.78H151V.89h-1.21V.54Z"/><path class="cls-1" d="M155.37,3.93h-.24l-1.5-2.51V4.78h-.36V.54h.24l1.74,2.91L157,.54h.24V4.78h-.36V1.43Z"/></g></g></svg>