<svg width="146px" height="39px" viewBox="0 345 146 39" version="1.1" xmlns="http://www.w3.org/2000/svg" xmlns:xlink="http://www.w3.org/1999/xlink">
    <defs>
        <polygon id="path-1" points="19.6313117 0.751323529 0.0568831169 0.751323529 0.0568831169 38.2352941 19.6313117 38.2352941 39.2057403 38.2352941 39.2057403 0.751323529"></polygon>
    </defs>
    <g id="napster" stroke="none" stroke-width="1" fill="none" fill-rule="evenodd" transform="translate(0.000000, 345.000000)">
        <path d="M67.287987,19.6280882 C64.5822468,19.6797059 63.6133377,20.1872794 63.1942987,21.6822794 C63.1298312,21.9126471 63.090013,22.1181618 63.0776883,22.2959559 C63.0577792,22.5865441 63.108026,22.79875 63.2189481,22.9373529 C63.3990779,23.1638971 63.8076883,23.2805147 64.5386364,23.2805147 C65.8384156,23.2805147 67.178961,22.6563235 67.6264416,22.4288235 L68.4161688,19.6118382 L67.287987,19.6280882 Z M73.3877532,13.3766176 C74.0163117,14.1633088 74.1158571,15.25875 73.7081948,16.7107353 L71.0991558,26.0143382 L67.2585974,26.0143382 L67.2339481,25.0278676 C66.3892338,25.5277941 64.8183117,26.2580882 62.7781039,26.2580882 C61.0137792,26.2580882 59.7614026,25.8298529 59.0740649,24.9686029 C58.6341688,24.4170588 58.4445584,23.7077941 58.5042857,22.8541912 C58.5298831,22.4852206 58.6019351,22.0885294 58.7204416,21.6641176 C59.5452468,18.7257353 62.3040779,17.1858088 66.6565844,17.1858088 L69.0968701,17.1858088 L69.3376753,16.3264706 C69.3831818,16.1649265 69.4106753,16.0215441 69.4192078,15.8972794 C69.4324805,15.7003676 69.3992987,15.5608088 69.3281948,15.4719118 C69.0911818,15.1746324 68.2872338,15.1440441 67.4368312,15.1440441 C65.6374286,15.1440441 62.9857273,15.7022794 62.4709351,15.8150735 L61.7978182,15.9622794 L62.6832987,12.8069118 L62.9497013,12.74 C63.0672597,12.7103676 65.8478961,12.0192647 68.7347143,12.0192647 C70.3814805,12.0192647 72.4235844,12.1683824 73.3877532,13.3766176 L73.3877532,13.3766176 Z" id="Fill-1" fill="#070A0B"></path>
        <path d="M85.4261169,18.9828676 C85.9503896,17.1179412 85.9826234,15.9775735 85.5692727,15.4585294 C85.2668442,15.0809559 84.6866364,14.9968382 83.8722597,14.9968382 C82.6198831,14.9968382 81.2271948,15.5474265 80.7361039,15.7940441 L78.7053766,23.0319853 C79.2154286,23.1552941 80.1132338,23.3283088 80.9816494,23.3283088 C82.5734286,23.3283088 84.3491299,22.8245588 85.4261169,18.9828676 Z M89.5036883,13.5419853 C90.4555325,14.7320588 90.5664545,16.62375 89.8592078,19.1482353 C88.5736494,23.7307353 85.2554675,26.2580882 80.5246883,26.2580882 C79.4932078,26.2580882 78.5138701,26.0401471 77.9156494,25.8489706 L76.5703636,30.6455882 L72.0917662,30.6455882 L77.2482208,12.2620588 L80.7247273,12.2620588 L80.8868442,13.2370588 C81.7258701,12.7313971 83.2370649,12.0192647 85.1284286,12.0192647 C86.4746623,12.0192647 88.4115325,12.1731618 89.5036883,13.5419853 L89.5036883,13.5419853 Z" id="Fill-2" fill="#070A0B"></path>
        <path d="M118.917,17.7956618 L123.923662,17.7956618 C124.038377,17.3177206 124.118961,16.8866176 124.14361,16.5310294 C124.186273,15.9202206 124.09526,15.4967647 123.883844,15.2338971 C123.650623,14.9442647 123.231584,14.8027941 122.546143,14.8027941 C120.742948,14.8027941 119.64226,15.7061029 118.917,17.7956618 Z M127.658987,13.6786765 C128.258156,14.4538971 128.511286,15.4872059 128.423117,16.7594853 C128.370974,17.5031618 128.203169,18.3290441 127.918753,19.2333088 L127.532896,20.4577941 L118.128221,20.4577941 C118.07987,20.6843382 118.042896,20.9022794 118.028675,21.0991912 C117.987909,21.6813235 118.098831,22.1296324 118.351961,22.4431618 C118.841156,23.0511029 119.830922,23.1333088 120.661416,23.1333088 C121.58387,23.1333088 122.767987,22.9727206 123.726468,22.8130882 C124.684,22.6525 125.415896,22.4909559 125.430117,22.4871324 L126.10513,22.3361029 L125.206377,25.5411765 L124.942818,25.6090441 C124.891623,25.6224265 124.259273,25.7849265 123.333974,25.9436029 C122.407727,26.1022794 121.187584,26.2580882 119.960805,26.2580882 C118.076078,26.2580882 115.725857,26.0621324 114.475377,24.4954412 C113.515948,23.2948529 113.382273,21.4595588 114.05539,19.0555147 C115.77326,12.9340441 120.495506,12.0192647 123.150052,12.0192647 C125.283169,12.0192647 126.80574,12.5736765 127.658987,13.6786765 L127.658987,13.6786765 Z" id="Fill-3" fill="#070A0B"></path>
        <path d="M58.2056494,13.2829412 C58.7915455,14.0170588 58.8872987,15.08 58.509026,16.4306618 L55.8032857,26.0764706 L51.3256364,26.0764706 L54.0626623,16.315 C54.1641039,15.9546324 54.1498831,15.7185294 54.0484416,15.5904412 C53.8502987,15.3438235 53.2179481,15.3027206 52.5855974,15.3027206 C50.9331429,15.3027206 49.0664286,16.0435294 48.4833766,16.2939706 L45.7397143,26.0764706 L41.2620649,26.0764706 L45.1187403,12.3241912 L48.6976364,12.3241912 L48.8758701,13.5773529 C49.8988182,13.0669118 52.1741429,12.0804412 54.5082468,12.0804412 C56.337987,12.0804412 57.5543377,12.4685294 58.2056494,13.2829412" id="Fill-4" fill="#070A0B"></path>
        <path d="M103.111078,12.6023529 L103.464701,12.7208824 L102.621883,15.7261765 L102.182935,15.6181618 C102.171558,15.61625 101.635909,15.4852941 100.918234,15.3552941 C100.202455,15.2252941 99.3055974,15.0952941 98.5708571,15.0952941 C96.4917792,15.0952941 96.0935974,15.6764706 95.9618182,16.1496324 C95.7997013,16.7260294 96.1874545,16.9296324 97.2739221,17.2756618 L97.436039,17.3282353 L98.9140519,17.7927941 C99.1264156,17.8616176 99.4497013,17.9658088 99.7995325,18.1302206 C100.150312,18.2936765 100.532377,18.5202206 100.860403,18.8327941 C101.519299,19.4608088 101.961091,20.4358088 101.535416,21.9499265 C100.450844,25.8193382 96.5827922,26.2580882 93.805,26.2580882 C91.8501169,26.2580882 89.753974,25.7065441 89.6648571,25.6826471 L89.279,25.5794118 L90.1625844,22.4269118 L90.6024805,22.5368382 C90.6148052,22.5397059 91.2376753,22.6945588 92.0141299,22.8503676 C92.7924805,23.0052206 93.7187273,23.1581618 94.3415974,23.1581618 C96.1751299,23.1581618 96.9449481,22.8006618 97.1885974,21.9336765 C97.3715714,21.2817647 97.0492338,21.1011029 95.8044416,20.6786029 L94.3804675,20.1891912 C94.1415584,20.1050735 93.8021558,19.9884559 93.4409481,19.8144853 C93.0778442,19.6405147 92.691987,19.4111029 92.3601688,19.1033088 C91.6936883,18.4858088 91.2462078,17.5566912 91.6387013,16.1563235 C92.3781818,13.5161765 95.0905584,12.0192647 99.0382468,12.0192647 C101.348649,12.0192647 103.03713,12.5775 103.111078,12.6023529" id="Fill-5" fill="#070A0B"></path>
        <path d="M140.819844,12.2563235 L139.802584,15.8829412 L139.374065,15.7921324 C139.362688,15.7902206 138.247779,15.5579412 137.271286,15.5579412 C136.235065,15.5579412 135.387506,15.9727941 135.072753,16.1505882 L132.30539,26.0143382 L127.828688,26.0143382 L131.685364,12.2620588 L135.270896,12.2620588 L135.30313,13.2427941 C136.007532,12.6922059 137.186909,12.0192647 138.747403,12.0192647 C139.599701,12.0192647 140.364779,12.1674265 140.397013,12.1731618 L140.819844,12.2563235" id="Fill-6" fill="#070A0B"></path>
        <path d="M111.69474,12.2620588 L115.570377,12.2620588 L114.246896,15.0704412 L110.906909,15.0704412 L108.800338,22.5846324 C108.76526,22.7069853 108.750091,22.7997059 108.744403,22.8713971 C108.736818,22.9975735 108.763364,23.0405882 108.770948,23.0511029 C108.806026,23.0941176 108.925481,23.1266176 109.080013,23.1419118 C109.227909,23.1581618 109.381494,23.1581618 109.457338,23.1581618 C109.868792,23.1581618 110.593104,23.0511029 111.21787,22.945 C111.843584,22.8388971 112.368805,22.7308824 112.379234,22.7289706 L113.043818,22.5922794 L112.175403,25.6874265 L111.910896,25.75625 C111.830312,25.7763235 109.932312,26.2580882 107.977429,26.2580882 C106.91087,26.2580882 105.380714,26.1548529 104.627961,25.2133088 C104.274338,24.7688235 104.124545,24.1991176 104.172896,23.4917647 C104.196597,23.1581618 104.262961,22.7939706 104.375779,22.3953676 L106.430208,15.0704412 L104.038273,15.0704412 L104.825156,12.2620588 L107.240792,12.2620588 C107.395325,11.8424265 107.899688,10.5988235 108.115844,9.53110294 L112.57074,8.67367647 L112.555571,8.74441176 C112.23513,10.3168382 111.836,11.7602206 111.69474,12.2620588" id="Fill-7" fill="#070A0B"></path>
        <g id="Group-11">
            <mask id="mask-2" fill="white">
                <use xlink:href="#path-1"></use>
            </mask>
            <g id="Clip-9"></g>
            <path d="M23.5771039,27.9911029 C22.4574545,29.0750735 21.1026883,29.9143382 19.5971818,30.4228676 C18.0916753,29.9143382 16.7369091,29.0750735 15.6172597,27.9911029 L23.5771039,27.9911029" id="Fill-8" fill="#070A0B" mask="url(#mask-2)"></path>
            <path d="M7.46211688,6.22757353 C10.4503766,2.86286765 14.7896104,0.751323529 19.6218312,0.751323529 C24.4493117,0.751323529 28.7838052,2.85808824 31.7720649,6.21801471 C33.0405584,5.87485294 34.364039,5.67316176 35.7301818,5.63205882 L35.7301818,11.1465441 C37.8177922,12.4570588 39.2057403,14.7903676 39.2057403,17.4515441 C39.2057403,20.1165441 37.8111558,22.4546324 35.7169091,23.7622794 L35.6941558,23.8989706 C34.8219481,32.0153676 27.8926364,38.2352941 19.5507273,38.2352941 C11.2078701,38.2352941 4.34207792,31.9044853 3.47461039,23.7794853 C1.387,22.4422059 0,20.1088971 0,17.4515441 C0,14.7951471 1.38415584,12.4656618 3.46512987,11.1551471 L3.46512987,5.63014706 C4.85023377,5.67029412 6.17750649,5.87867647 7.46211688,6.22757353 Z M12.1672987,8.31426471 C14.3914286,7.14904412 16.917987,6.49044118 19.5981299,6.49044118 C22.2735325,6.49044118 24.7981948,7.14713235 27.0194805,8.31044118 C27.5428052,7.97588235 28.0850909,7.67095588 28.6444416,7.39375 C26.2733636,5.17227941 23.0964416,3.81397059 19.6047662,3.81397059 C16.1064545,3.81397059 12.9228961,5.17705882 10.5508701,7.40617647 C11.0637662,7.66235294 11.6705195,8.00360294 12.1672987,8.31426471 Z M12.1341169,12.0785294 C10.5594026,10.7374265 8.687,9.72801471 6.63731169,9.17551471 L6.63541558,21.5647059 L6.63541558,22.0665441 C6.63541558,29.2939706 12.4194805,35.0550735 19.6038182,35.0550735 C26.7891039,35.0550735 32.5627403,29.2681618 32.5627403,22.0416912 L32.5627403,21.4175 L32.5636883,9.18794118 C30.5083117,9.74330882 28.6387532,10.7269118 27.0611948,12.0747059 C24.9517792,10.5749265 22.3778182,9.69360294 19.5990779,9.69360294 C16.8193896,9.69360294 14.2454286,10.5758824 12.1341169,12.0785294 L12.1341169,12.0785294 Z" id="Fill-10" fill="#070A0B" mask="url(#mask-2)"></path>
        </g>
        <path d="M23.6301948,22.0780147 C25.7908052,21.8304412 29.4180519,21.8581618 29.4180519,21.8581618 C29.3583247,22.5110294 29.4275325,24.4352206 27.3465584,25.6386765 C27.0024156,25.8384559 26.1425325,26.1194853 25.3328961,26.1577206 C23.3353506,26.2475735 20.4874026,26.2743382 20.4874026,26.2743382 C20.9898701,23.9888235 21.8241558,22.2844853 23.6301948,22.0780147" id="Fill-12" fill="#070A0B"></path>
        <path d="M15.5651169,22.0780147 C17.3702078,22.2844853 18.2044935,23.9888235 18.706961,26.2743382 C18.706961,26.2743382 15.859013,26.2475735 13.8614675,26.1577206 C13.0518312,26.1194853 12.1919481,25.8384559 11.8468571,25.6386765 C9.76683117,24.4352206 9.83603896,22.5110294 9.77536364,21.8581618 C9.77536364,21.8581618 13.4035584,21.8304412 15.5651169,22.0780147" id="Fill-13" fill="#070A0B"></path>
        <path d="M23.4017143,32.4053676 C22.3124026,33.06875 21.005987,33.4558824 19.600026,33.4558824 C18.1940649,33.4558824 16.8867013,33.06875 15.7964416,32.4053676 C15.7964416,32.4053676 15.8684935,31.9742647 16.0922338,31.6425735 C16.3662208,31.2372794 16.5984935,31.1197059 16.5984935,31.1197059 C17.5275844,31.3930882 18.5401039,31.5431618 19.600026,31.5431618 C20.659,31.5431618 21.6715195,31.3930882 22.6006104,31.1197059 C22.6006104,31.1197059 22.8869221,31.2755147 23.1428961,31.6999265 C23.378961,32.0908824 23.4017143,32.4053676 23.4017143,32.4053676" id="Fill-14" fill="#070A0B"></path>
        <path d="M143.480078,10.4152941 L143.773026,10.4152941 C143.959792,10.4152941 144.099156,10.3875735 144.099156,10.1830147 C144.099156,10.0033088 143.908597,9.97558824 143.757857,9.97558824 L143.480078,9.97558824 L143.480078,10.4152941 Z M143.151104,9.71558824 L143.776818,9.71558824 C144.193961,9.71558824 144.427182,9.8475 144.427182,10.2107353 C144.427182,10.5194853 144.236623,10.6389706 143.991078,10.6590441 L144.434766,11.3902941 L144.090623,11.3902941 L143.686753,10.6752941 L143.480078,10.6752941 L143.480078,11.3902941 L143.151104,11.3902941 L143.151104,9.71558824 Z M143.74174,11.7344118 C144.35513,11.7344118 144.859494,11.2383088 144.859494,10.5548529 C144.859494,9.87617647 144.35513,9.38389706 143.74174,9.38389706 C143.119818,9.38389706 142.623987,9.87617647 142.623987,10.5548529 C142.623987,11.2383088 143.119818,11.7344118 143.74174,11.7344118 Z M143.74174,9.06463235 C144.546636,9.06463235 145.263364,9.64867647 145.263364,10.5548529 C145.263364,11.4658088 144.546636,12.0536765 143.74174,12.0536765 C142.936844,12.0536765 142.219169,11.4658088 142.219169,10.5548529 C142.219169,9.64867647 142.936844,9.06463235 143.74174,9.06463235 L143.74174,9.06463235 Z" id="Fill-15" fill="#070A0B"></path>
    </g>
</svg>
