<?xml version="1.0" encoding="utf-8"?>
<!-- Generator: Adobe Illustrator 21.0.0, SVG Export Plug-In . SVG Version: 6.00 Build 0)  -->
<svg version="1.1" id="Lager_1" xmlns="http://www.w3.org/2000/svg" xmlns:xlink="http://www.w3.org/1999/xlink" x="0px" y="0px"
	 viewBox="0 0 146 39" style="enable-background:new 0 0 146 39;" xml:space="preserve">
<style type="text/css">
	.st0{fill:#FFFFFF;}
</style>
<title>Resurs 1</title>
<g id="Lager_2">
	<g id="Lager_1-2">
		<path class="st0" d="M96,13.6c3.2-0.1,5.9,2.5,6,5.7s-2.5,5.9-5.7,6c-3.2,0.1-5.9-2.5-6-5.7c0-0.1,0-0.1,0-0.2
			C90.3,16.3,92.9,13.7,96,13.6 M96,9.7c-5.3,0.1-9.5,4.5-9.5,9.8c0,5.3,4.3,9.5,9.5,9.5s9.5-4.3,9.5-9.5c0.1-5.3-4.2-9.7-9.5-9.8"
			/>
		<path class="st0" d="M36.9,10.4V12c-1.7-1.4-3.8-2.2-6-2.2c-5.3,0.1-9.5,4.4-9.5,9.7c-0.1,5.3,4.2,9.7,9.5,9.8
			c2.2,0,4.3-0.8,6-2.2v1.6h3.5V10.4H36.9 M31.1,25.5c-3.4,0.1-6.1-2.6-6.2-5.9c-0.1-3.4,2.6-6.1,5.9-6.2c3.4-0.1,6.1,2.6,6.2,5.9
			c0,0,0,0.1,0,0.1C37,22.8,34.4,25.5,31.1,25.5"/>
		<path class="st0" d="M134,10.4V12c-1.7-1.4-3.8-2.2-6-2.2c-5.3,0.1-9.5,4.4-9.5,9.7c-0.1,5.3,4.2,9.7,9.5,9.8c2.2,0,4.3-0.8,6-2.2
			v1.6h3.5V10.4H134 M128.2,25.5c-3.4,0.1-6.1-2.6-6.2-5.9c-0.1-3.4,2.6-6.1,5.9-6.2c3.4-0.1,6.1,2.6,6.2,5.9c0,0,0,0.1,0,0.1
			C134.2,22.8,131.5,25.5,128.2,25.5"/>
		<path class="st0" d="M111.9,11.5c-2.6,1.8-4,4.8-3.8,7.9v9.2h3.8v-9.2c0-6.1,6.1-5.7,6.1-5.7v-4C115.8,9.8,113.7,10.4,111.9,11.5"
			/>
		<path class="st0" d="M58.5,11.7c-3.4-2.6-8-2.6-11.4,0c-2.4,1.9-3.8,4.8-3.8,7.8v9.1h3.8v-9.1c0-3.1,2.5-5.7,5.7-5.7
			c3.1,0,5.7,2.5,5.7,5.7v9.1h3.8v-9.1C62.3,16.4,60.9,13.6,58.5,11.7"/>
		<path class="st0" d="M82.2,4.5c-1,0-1.8,0.8-1.8,1.8c0,0,0,0,0,0V12c-1.7-1.4-3.8-2.2-6-2.2c-5.3,0.1-9.5,4.4-9.5,9.7
			c-0.1,5.3,4.2,9.7,9.5,9.8c2.2,0,4.3-0.8,6-2.2v1.6h3.5V4.5H82.2 M74.6,25.6c-3.4,0.1-6.1-2.6-6.2-5.9s2.6-6.1,5.9-6.2
			c3.4-0.1,6.1,2.6,6.2,5.9c0,0,0,0.1,0,0.1C80.5,22.8,77.9,25.5,74.6,25.6"/>
		<path class="st0" d="M9.5,9.8c-2.2,0-4.3,0.8-6,2.2v-1.6H0v24.1h1.8c1,0,1.8-0.8,1.8-1.8c0,0,0,0,0,0V27c1.7,1.4,3.8,2.2,6,2.3
			c5.3-0.1,9.5-4.5,9.5-9.8C19,14.2,14.8,9.8,9.5,9.8 M9.3,25.6c-3.4,0-6.1-2.7-6.1-6.1c0-3.4,2.7-6.1,6.1-6.1
			c3.4,0,6.1,2.7,6.1,6.1C15.3,22.9,12.6,25.6,9.3,25.6"/>
		<path class="st0" d="M142.7,11.3c-1.9,0-3.4-1.5-3.3-3.4c0,0,0,0,0,0c0-1.8,1.5-3.3,3.3-3.3c1.8,0,3.3,1.5,3.3,3.3
			C146,9.8,144.6,11.3,142.7,11.3C142.7,11.3,142.7,11.3,142.7,11.3 M142.7,4.9c-1.6,0-2.9,1.3-2.9,3c0,0,0,0,0,0
			c0,1.6,1.3,2.9,2.9,2.9c1.6,0,2.9-1.3,2.9-2.9C145.6,6.3,144.3,5,142.7,4.9C142.7,4.9,142.7,4.9,142.7,4.9 M143.6,9.9l-1-1.6h-0.7
			v1.5h-0.5V6h1.6c0.6,0,1.1,0.5,1.2,1.1c0,0,0,0.1,0,0.1c0,0.6-0.4,1.1-1,1.2l1,1.6H143.6z M143,6.4h-1.1v1.5h1.1
			c0.4,0,0.7-0.3,0.7-0.7S143.4,6.4,143,6.4"/>
	</g>
</g>
</svg>
