<svg width="426px" height="178px" viewBox="507 215 426 178" version="1.1" xmlns="http://www.w3.org/2000/svg" xmlns:xlink="http://www.w3.org/1999/xlink">
    <defs>
        <polygon id="path-1" points="253.175371 89.2818944 253.175371 177.78217 0.35052355 177.78217 0.35052355 0.781618288 253.175371 0.781618288 253.175371 89.2818944"></polygon>
        <polygon id="path-3" points="0.0508005145 0.100772022 0.0508005145 115.892906 101.601029 115.892906 101.601029 0.100772022 0.0508005145 0.100772022"></polygon>
    </defs>
    <g id="YouTube-logo-dark-(2)" stroke="none" stroke-width="1" fill="none" fill-rule="evenodd" transform="translate(507.000000, 215.000000)">
        <g id="Group-3" transform="translate(171.028399, 0.000000)">
            <mask id="mask-2" fill="white">
                <use xlink:href="#path-1"></use>
            </mask>
            <g id="Clip-2"></g>
            <path d="M250.650585,38.9767551 C250.650585,38.9767551 248.179987,21.6295713 240.599703,13.9903746 C230.986553,3.96482863 220.208377,3.9140192 215.26718,3.32801719 C179.888855,0.781618288 126.819251,0.781618288 126.819251,0.781618288 L126.708337,0.781618288 C126.708337,0.781618288 73.6378857,0.781618288 38.2595608,3.32801719 C33.3166707,3.9140192 22.5427283,3.96482863 12.9270376,13.9903746 C5.34590747,21.6295713 2.87869582,38.9767551 2.87869582,38.9767551 C2.87869582,38.9767551 0.35052355,59.3470995 0.35052355,79.7191376 L0.35052355,98.8175528 C0.35052355,119.18705 2.87869582,139.557395 2.87869582,139.557395 C2.87869582,139.557395 5.34590747,156.903732 12.9270376,164.543775 C22.5427283,174.571862 35.1785096,174.252609 40.8038199,175.302671 C61.0300447,177.235969 126.76337,177.83298 126.76337,177.83298 C126.76337,177.83298 179.888855,177.753378 215.26718,175.208673 C220.208377,174.620978 230.986553,174.571862 240.599703,164.543775 C248.179987,156.903732 250.650585,139.557395 250.650585,139.557395 C250.650585,139.557395 253.175371,119.18705 253.175371,98.8175528 L253.175371,79.7191376 C253.175371,59.3470995 250.650585,38.9767551 250.650585,38.9767551" id="Fill-1" fill="#0A0A08" mask="url(#mask-2)"></path>
        </g>
        <path d="M142.24144,144.060803 L142.24144,134.745742 C136.142839,141.737119 130.97304,145.268374 125.337569,145.268374 C120.392986,145.268374 116.959718,142.935375 115.24012,138.720733 C114.195323,136.157398 113.454482,132.156156 113.454482,126.277505 L113.454482,58.5316083 L129.541312,58.5316083 L129.541312,122.043387 L129.541312,127.971153 C129.916389,130.348187 130.925626,131.216181 132.971193,131.216181 C136.050551,131.216181 138.836959,128.540218 142.24144,123.737034 L142.24144,58.5316083 L158.32827,58.5316083 L158.32827,144.060803 L142.24144,144.060803 Z" id="Fill-4" fill="#FFFFFF"></path>
        <g id="Group-8" transform="translate(0.000000, 29.638830)">
            <mask id="mask-4" fill="white">
                <use xlink:href="#path-3"></use>
            </mask>
            <g id="Clip-6"></g>
            <path d="M85.5141993,89.0172619 C86.3608746,97.4854991 83.734488,101.687438 78.7391041,101.687438 C73.7445668,101.687438 71.1207202,97.4854991 71.9673955,89.0172619 L71.9673955,55.1443134 C71.1207202,46.6760763 73.7454135,42.7070135 78.7407974,42.7070135 C83.7361813,42.7070135 86.3693413,46.6760763 85.5226661,55.1443134 L85.5141993,89.0172619 Z M101.601029,56.8379608 C101.601029,47.6981925 99.765437,40.8346863 96.5209775,36.5141917 C92.2351074,30.6643335 85.5141993,28.269516 78.7407974,28.269516 C71.0741531,28.269516 65.239714,30.6643335 60.9606173,36.5141917 C57.6645106,40.8346863 55.8966527,47.772713 55.8966527,56.9124813 L55.8805659,87.3236145 C55.8805659,96.4125734 57.4528418,102.692618 60.7497952,106.970771 C65.0288919,112.802846 71.9673955,115.892906 78.7407974,115.892906 C85.5141993,115.892906 92.5746242,112.802846 96.8596476,106.970771 C100.104107,102.692618 101.601029,96.4125734 101.601029,87.3236145 L101.601029,56.8379608 L101.601029,56.8379608 Z" id="Fill-5" fill="#FFFFFF" mask="url(#mask-4)"></path>
            <path d="M38.1003858,67.8466691 L38.1003858,114.421973 L21.166881,114.421973 L21.166881,67.8466691 C21.166881,67.8466691 3.61953666,10.7444993 0,0.100772022 L17.7801801,0.100772022 L29.6632671,44.708058 L41.4870868,0.100772022 L59.2672669,0.100772022 L38.1003858,67.8466691" id="Fill-7" fill="#FFFFFF" mask="url(#mask-4)"></path>
        </g>
        <path d="M372.537106,82.2079525 C372.537106,74.293538 374.707135,72.1349844 379.826133,72.1349844 C384.907878,72.1349844 386.930585,74.4866138 386.930585,82.3138054 L386.930585,91.5577331 L372.537106,91.5738227 L372.537106,82.2079525 Z M403.047048,104.260089 L403.043662,86.9484716 C403.043662,77.9043944 401.263104,71.2881607 398.058438,67.0083136 C393.761561,61.2177331 387.657879,58.1530781 379.968375,58.1530781 C372.143402,58.1530781 366.03972,61.2177331 361.606529,67.0083136 C358.350216,71.2881607 356.450276,78.2795373 356.450276,87.3236145 L356.450276,116.962444 C356.450276,125.954866 358.539024,132.250153 361.795337,136.484272 C366.226835,142.266384 372.330517,145.152359 380.349378,145.152359 C388.35808,145.152359 394.64803,142.124117 398.88818,135.979565 C400.751712,133.267188 401.955684,130.192371 402.473003,126.794068 C402.611011,125.258776 403.017415,121.762241 403.017415,116.821872 L403.017415,114.421973 L386.931432,114.421973 C386.931432,120.573301 386.958525,124.229886 386.816284,125.065701 C385.941668,129.163481 383.742006,131.216181 379.968375,131.216181 C374.707135,131.216181 372.484612,127.281838 372.537106,119.467349 L372.537106,104.260089 L403.047048,104.260089 L403.047048,104.260089 Z" id="Fill-9" fill="#FFFFFF"></path>
        <path d="M330.203344,119.502916 C330.203344,127.971153 328.20773,131.216181 323.787239,131.216181 C321.2633,131.216181 318.355817,129.917154 315.792085,127.353818 L315.809865,75.9973474 C318.372751,73.4670381 321.2633,72.1349844 323.787239,72.1349844 C328.20773,72.1349844 330.203344,74.6212588 330.203344,83.089496 L330.203344,119.502916 Z M331.987289,58.0201267 C326.348432,58.0201267 320.743441,61.4887167 315.792085,67.5824601 L315.809865,30.5864257 L300.569711,30.5864257 L300.569711,144.060803 L315.809865,144.060803 L315.831032,135.534982 C320.95257,141.872611 326.53724,145.152359 331.987289,145.152359 C338.090971,145.152359 342.551256,141.884466 344.596823,135.592566 C345.620453,132.005421 346.290174,126.482437 346.290174,118.656092 L346.290174,84.7831434 C346.290174,76.7679569 345.263156,71.2881607 344.239526,67.8847762 C342.193959,61.5463007 338.090971,58.0201267 331.987289,58.0201267 L331.987289,58.0201267 Z" id="Fill-10" fill="#FFFFFF"></path>
        <path d="M287.869582,144.060803 L271.782752,144.060803 L271.782752,134.745742 C265.684151,141.737119 260.514352,145.268374 254.878881,145.268374 C249.934298,145.268374 246.50103,142.935375 244.781432,138.720733 C243.736635,136.157398 242.995794,132.156156 242.995794,126.277505 L242.995794,59.378432 L259.082624,59.378432 L259.082624,122.043387 L259.082624,127.971153 C259.457701,130.348187 260.466938,131.216181 262.512505,131.216181 C265.591863,131.216181 268.378271,128.540218 271.782752,123.737034 L271.782752,59.378432 L287.869582,59.378432 L287.869582,144.060803" id="Fill-11" fill="#FFFFFF"></path>
        <polyline id="Fill-12" fill="#FFFFFF" points="226.908965 144.060803 209.97546 144.060803 209.97546 46.6760763 192.19528 46.6760763 192.19528 30.604209 245.53582 30.5864257 245.53582 46.6760763 226.908965 46.6760763 226.908965 144.060803"></polyline>
    </g>
</svg>
