<svg width="119px" height="28px" viewBox="824 14 119 28" version="1.1" xmlns="http://www.w3.org/2000/svg" xmlns:xlink="http://www.w3.org/1999/xlink">
    <defs>
        <polygon id="path-1" points="0.0926225601 26.5681487 83.1791239 26.5681487 83.1791239 0.220865631 0.0926225601 0.220865631 0.0926225601 26.5681487"></polygon>
    </defs>
    <g id="deezer" stroke="none" stroke-width="1" fill="none" fill-rule="evenodd" transform="translate(824.000000, 14.000000)">
        <g id="Group-8" transform="translate(0.000000, 11.686012)" fill="#121513">
            <polygon id="Fill-1" points="0 14.8821365 7.78958634 14.8821365 7.78958634 12.5227307 0 12.5227307"></polygon>
            <polygon id="Fill-3" points="0 11.8110525 7.78958634 11.8110525 7.78958634 9.4355784 0 9.4355784"></polygon>
            <polygon id="Fill-4" points="0 8.72360811 7.78958634 8.72360811 7.78958634 6.34842613 0 6.34842613"></polygon>
            <polygon id="Fill-5" points="0 5.63587153 7.78958634 5.63587153 7.78958634 3.26127385 0 3.26127385"></polygon>
            <polygon id="Fill-6" points="0 2.54755066 7.78958634 2.54755066 7.78958634 0.173245131 0 0.173245131"></polygon>
            <polygon id="Fill-7" points="8.73381381 14.8821365 16.5234002 14.8821365 16.5234002 12.5227307 8.73381381 12.5227307"></polygon>
        </g>
        <polygon id="Fill-9" fill="#121513" points="8.73381381 23.4970647 16.5234002 23.4970647 16.5234002 21.1215906 8.73381381 21.1215906"></polygon>
        <g id="Group-13" transform="translate(8.710586, 17.821169)" fill="#121513">
            <polygon id="Fill-10" points="0.0232282282 2.5884517 7.81281456 2.5884517 7.81281456 0.213269723 0.0232282282 0.213269723"></polygon>
            <polygon id="Fill-12" points="8.75675169 8.74698013 16.546338 8.74698013 16.546338 6.38757427 8.75675169 6.38757427"></polygon>
        </g>
        <polygon id="Fill-14" fill="#121513" points="17.4673373 23.4970647 25.2569236 23.4970647 25.2569236 21.1215906 17.4673373 21.1215906"></polygon>
        <polygon id="Fill-15" fill="#121513" points="17.4673373 20.4096203 25.2569236 20.4096203 25.2569236 18.0344383 17.4673373 18.0344383"></polygon>
        <polygon id="Fill-16" fill="#121513" points="17.4673373 17.3218837 25.2569236 17.3218837 25.2569236 14.9472861 17.4673373 14.9472861"></polygon>
        <polygon id="Fill-17" fill="#121513" points="17.4673373 14.2335629 25.2569236 14.2335629 25.2569236 11.8592573 17.4673373 11.8592573"></polygon>
        <polygon id="Fill-18" fill="#121513" points="17.4673373 11.1464106 25.2569236 11.1464106 25.2569236 8.77122861 17.4673373 8.77122861"></polygon>
        <g id="Group-22" transform="translate(17.421171, 5.550856)" fill="#121513">
            <polygon id="Fill-19" points="0.0461661036 2.50869467 7.83575244 2.50869467 7.83575244 0.133220539 0.0461661036 0.133220539"></polygon>
            <polygon id="Fill-21" points="8.77968956 21.0172929 16.5692759 21.0172929 16.5692759 18.6578871 8.77968956 18.6578871"></polygon>
        </g>
        <polygon id="Fill-23" fill="#121513" points="26.2008607 23.4970647 33.9904471 23.4970647 33.9904471 21.1215906 26.2008607 21.1215906"></polygon>
        <polygon id="Fill-24" fill="#121513" points="26.2008607 20.4096203 33.9904471 20.4096203 33.9904471 18.0344383 26.2008607 18.0344383"></polygon>
        <polygon id="Fill-25" fill="#121513" points="26.2008607 17.3218837 33.9904471 17.3218837 33.9904471 14.9472861 26.2008607 14.9472861"></polygon>
        <g id="Group-29" transform="translate(26.131757, 11.686012)" fill="#121513">
            <polygon id="Fill-26" points="0.069103979 2.54755066 7.85869032 2.54755066 7.85869032 0.173245131 0.069103979 0.173245131"></polygon>
            <polygon id="Fill-28" points="8.80320815 14.8821365 16.5930848 14.8821365 16.5930848 12.5227307 8.80320815 12.5227307"></polygon>
        </g>
        <polygon id="Fill-30" fill="#121513" points="34.9349649 23.4970647 42.7248416 23.4970647 42.7248416 21.1215906 34.9349649 21.1215906"></polygon>
        <polygon id="Fill-31" fill="#121513" points="34.9349649 20.409036 42.7248416 20.409036 42.7248416 18.0335619 34.9349649 18.0335619"></polygon>
        <polygon id="Fill-32" fill="#121513" points="34.9349649 17.3218837 42.7248416 17.3218837 42.7248416 14.9464096 34.9349649 14.9464096"></polygon>
        <polygon id="Fill-33" fill="#121513" points="34.9349649 14.2335629 42.7248416 14.2335629 42.7248416 11.8583809 34.9349649 11.8583809"></polygon>
        <polygon id="Fill-34" fill="#121513" points="34.9349649 11.1458263 42.7248416 11.1458263 42.7248416 8.77122861 34.9349649 8.77122861"></polygon>
        <polygon id="Fill-35" fill="#121513" points="34.9349649 8.05779756 42.7248416 8.05779756 42.7248416 5.68319988 34.9349649 5.68319988"></polygon>
        <g id="Group-44" transform="translate(34.842342, 0.000000)">
            <mask id="mask-2" fill="white">
                <use xlink:href="#path-1"></use>
            </mask>
            <g id="Clip-37"></g>
            <polygon id="Fill-36" fill="#121513" mask="url(#mask-2)" points="0.0926225601 4.97035314 7.88249925 4.97035314 7.88249925 2.59517116 0.0926225601 2.59517116"></polygon>
            <path d="M14.4897688,23.5166388 L16.3192821,23.5166388 C19.0053363,23.5166388 19.4452209,22.0921139 19.4452209,17.5640763 L19.4452209,8.50946193 C19.4452209,4.60165945 19.1124765,3.28756738 16.0298003,3.28756738 L14.4897688,3.28756738 L14.4897688,23.5166388 Z M10.9503675,0.22057348 L16.7905248,0.22057348 C22.6695893,0.22057348 23.224744,2.29075054 23.224744,9.9594039 L23.224744,17.7963358 C23.224744,24.5517273 21.8743129,26.584217 16.1424572,26.584217 L10.9503675,26.584217 L10.9503675,0.22057348 L10.9503675,0.22057348 Z" id="Fill-38" fill="#000105" mask="url(#mask-2)"></path>
            <polyline id="Fill-39" fill="#000105" mask="url(#mask-2)" points="24.6396334 0.22057348 34.5537316 0.22057348 34.5537316 3.3544698 28.1801961 3.3544698 28.1801961 11.6211548 34.0813275 11.6211548 34.0813275 14.7091836 28.1801961 14.7091836 28.1801961 23.4526579 34.5537316 23.4526579 34.5537316 26.584217 24.6396334 26.584217 24.6396334 0.22057348"></polyline>
            <polyline id="Fill-40" fill="#000105" mask="url(#mask-2)" points="35.9703632 0.22057348 45.8838806 0.22057348 45.8838806 3.3544698 39.5109259 3.3544698 39.5109259 11.6211548 45.4120572 11.6211548 45.4120572 14.7091836 39.5109259 14.7091836 39.5109259 23.4526579 45.8838806 23.4526579 45.8838806 26.584217 35.9703632 26.584217 35.9703632 0.22057348"></polyline>
            <polyline id="Fill-41" fill="#000105" mask="url(#mask-2)" points="60.2818979 0.22057348 70.1957057 0.22057348 70.1957057 3.3544698 63.8218799 3.3544698 63.8218799 11.6211548 69.7241727 11.6211548 69.7241727 14.7091836 63.8218799 14.7091836 63.8218799 23.4526579 70.1957057 23.4526579 70.1957057 26.584217 60.2818979 26.584217 60.2818979 0.22057348"></polyline>
            <polyline id="Fill-42" fill="#000105" mask="url(#mask-2)" points="47.2996411 23.497649 55.4568142 3.3097708 47.2996411 3.3097708 47.2996411 0.222326382 58.8652663 0.222326382 58.8652663 3.3097708 50.8483337 23.497649 58.8652663 23.497649 58.8652663 26.5856777 47.2996411 26.584217 47.2996411 23.497649"></polyline>
            <path d="M75.1531903,11.8592573 L76.2510145,11.8592573 C79.1182489,11.8592573 79.5558106,11.5034183 79.5558106,7.56026559 C79.5558106,3.65246311 79.2076776,3.3080179 76.9597658,3.3080179 L75.1531903,3.3080179 L75.1531903,11.8592573 Z M71.6123373,0.222326382 L77.2771214,0.222326382 C82.5757706,0.222326382 82.9468416,1.5808253 82.9468416,7.34991737 C82.9468416,10.8904869 82.6149683,12.6217696 79.6385612,13.534155 C82.1059797,13.7894944 82.9514872,15.0854731 82.9514872,17.56729 L82.9514872,23.2998633 C82.9514872,24.2505204 82.9581654,25.4886534 83.1791239,26.584217 L79.6385612,26.584217 C79.2744587,25.9262945 79.4042464,25.2791816 79.4042464,24.2192603 L79.4042464,18.2684507 C79.4042464,15.7851731 78.9359073,15.1845121 76.5404962,15.1845121 L75.1531903,15.1845121 L75.1531903,26.5856777 L71.6123373,26.584217 L71.6123373,0.222326382 L71.6123373,0.222326382 Z" id="Fill-43" fill="#000105" mask="url(#mask-2)"></path>
        </g>
    </g>
</svg>
