<svg width="151px" height="45px" viewBox="538 174 151 45" version="1.1" xmlns="http://www.w3.org/2000/svg" xmlns:xlink="http://www.w3.org/1999/xlink">
    <defs>
        <polygon id="path-1" points="63.266851 44.0309821 0.08573273 44.0309821 0.08573273 0.0635966582 63.266851 0.0635966582 63.266851 44.0309821"></polygon>
    </defs>
    <g id="youtube-red" stroke="none" stroke-width="1" fill="none" fill-rule="evenodd" transform="translate(538.000000, 174.000000)">
        <path d="M80.9627771,17.7791474 C80.3279645,17.7791474 79.693152,18.0774247 79.0523336,18.7087634 L79.0523336,31.5205042 C79.693152,32.1576651 80.3279645,32.4553453 80.9627771,32.4553453 C82.0624383,32.4553453 82.6328387,31.5205042 82.6328387,29.6211139 L82.6328387,20.6489093 C82.6328387,18.7490711 82.0685942,17.7791474 80.9627771,17.7791474" id="Fill-1" fill="#121513"></path>
        <g id="Group-5" transform="translate(42.791293, 0.000000)">
            <mask id="mask-2" fill="white">
                <use xlink:href="#path-1"></use>
            </mask>
            <g id="Clip-3"></g>
            <path d="M52.1744471,17.7791474 C50.8929605,17.7791474 50.251992,18.7490711 50.251992,20.6957857 L50.251992,22.6417539 L54.0788848,22.6417539 L54.0788848,20.6957857 C54.079035,18.7490711 53.4442224,17.7791474 52.1744471,17.7791474" id="Fill-2" fill="#121513" mask="url(#mask-2)"></path>
            <path d="M62.6320384,9.5496503 C62.6320384,9.5496503 62.0144925,5.24194708 60.1220663,3.34240746 C57.7232015,0.852583368 55.025248,0.840640333 53.7910571,0.694935314 C44.9500757,0.0635966582 31.6879281,0.0635966582 31.6879281,0.0635966582 L31.6646556,0.0635966582 C31.6646556,0.0635966582 18.4032587,0.0635966582 9.56167679,0.694935314 C8.32733568,0.840789621 5.63538801,0.852583368 3.23066752,3.34240746 C1.33809123,5.24194708 0.720695454,9.5496503 0.720695454,9.5496503 C0.720695454,9.5496503 0.08573273,14.605286 0.08573273,19.6728648 L0.08573273,24.4188774 C0.08573273,29.4751103 0.720695454,34.5365683 0.720695454,34.5365683 C0.720695454,34.5365683 1.33809123,38.8496459 3.23051737,40.7438111 C5.63508772,43.2336352 8.7920341,43.1573491 10.1963392,43.4147215 C15.2523181,43.9000565 31.6766672,44.0399393 31.6766672,44.0399393 C31.6766672,44.0399393 44.9500757,44.0227712 53.7910571,43.3914326 C55.0253982,43.2449811 57.7232015,43.2336352 60.1220663,40.7439604 C62.0144925,38.8497952 62.6320384,34.5367176 62.6320384,34.5367176 C62.6320384,34.5367176 63.266851,29.4752596 63.266851,24.4190267 L63.266851,19.6730141 C63.2667008,14.6051368 62.6320384,9.5496503 62.6320384,9.5496503 L62.6320384,9.5496503 Z M14.0121214,35.6351782 L9.74965818,35.6351782 L9.74965818,11.3848468 L5.24696319,11.3848468 L5.24696319,7.42199872 L18.602501,7.42199872 L18.602501,11.3849961 L14.0121214,11.3849961 L14.0121214,35.6351782 Z M29.1193995,35.6351782 L25.2863507,35.6351782 L25.2863507,33.3324118 C23.7578758,35.0743034 22.3181365,35.9216617 20.9070748,35.9216617 C19.6727337,35.9216617 18.8259166,35.4249808 18.437792,34.3608564 C18.226388,33.7183211 18.1031191,32.7127176 18.1031191,31.2280492 L18.1031191,14.6051368 L21.9298618,14.6051368 L21.9298618,30.0822643 C21.9298618,30.9767976 21.9298618,31.4442181 21.965296,31.5667835 C22.0592867,32.1575158 22.3526698,32.455196 22.8640633,32.455196 C23.6281506,32.455196 24.4338281,31.8711816 25.2860504,30.6791175 L25.2860504,14.6051368 L29.1190992,14.6051368 L29.1190992,35.6351782 L29.1193995,35.6351782 Z M43.6744448,29.3171637 C43.6744448,31.2632811 43.5391642,32.6662891 43.2803145,33.5547016 C42.768921,35.120732 41.7459839,35.9216617 40.2235147,35.9216617 C38.8598989,35.9216617 37.5428279,35.1677577 36.2611912,33.5950093 L36.2611912,35.6351782 L32.4348989,35.6351782 L32.4348989,7.42199872 L36.2611912,7.42199872 L36.2611912,16.6335119 C37.5022888,15.1137607 38.8184589,14.3486601 40.2235147,14.3486601 C41.746134,14.3486601 42.7749268,15.1548149 43.2803145,16.7269661 C43.5391642,17.5690993 43.6744448,18.960015 43.6744448,20.9531581 L43.6744448,29.3171637 Z M57.9173388,25.8099423 L50.2579977,25.8099423 L50.2579977,29.538707 C50.2579977,31.4854216 50.8989663,32.4553453 52.2151363,32.4553453 C53.1560943,32.4553453 53.7080269,31.9468706 53.9261875,30.9297719 C53.9607208,30.725546 54.0083167,29.8781877 54.0083167,28.3524651 L57.9171887,28.3524651 L57.9171887,28.9073683 C57.9171887,30.1355601 57.8704936,30.9767976 57.8352096,31.3627069 C57.7057847,32.2040937 57.4057952,32.9697915 56.9415472,33.6423336 C55.8833261,35.1679069 54.3083062,35.921811 52.3031212,35.921811 C50.3043925,35.921811 48.7762179,35.2025417 47.6711515,33.7650483 C46.8603691,32.7128669 46.442666,31.053233 46.442666,28.8200349 L46.442666,21.4617821 C46.442666,19.2173874 46.8067674,17.5690993 47.6237057,16.504975 C48.7292225,15.0674815 50.2576975,14.3488094 52.214836,14.3488094 C54.1372912,14.3488094 55.6597603,15.0674815 56.7352481,16.504975 C57.5349198,17.5690993 57.9168884,19.2173874 57.9168884,21.4617821 L57.9173388,25.8099423 Z" id="Fill-4" fill="#121513" mask="url(#mask-2)"></path>
        </g>
        <path d="M9.66993125,24.1383654 L9.66993125,35.681756 L5.3787904,35.681756 L5.3787904,24.1383654 C4.98466008,22.0869999 4.12643191,19.0946727 2.75140504,15.1137607 C1.83987544,12.4722601 0.905673953,9.81881644 0,7.17656937 L4.51455644,7.17656937 L7.56009531,18.3639083 L10.4928754,7.17656937 L14.8313119,7.17656937 L9.66993125,24.1383654 Z M24.2604107,33.7999816 C23.1906284,35.2492689 21.6857262,35.9740618 19.7398485,35.9740618 C17.8119881,35.9740618 16.3010801,35.2494182 15.236703,33.7999816 C14.4139091,32.735708 14.0203793,31.0584581 14.0203793,28.8025682 L14.0203793,21.3620578 C14.0203793,19.0945234 14.4139091,17.434143 15.236703,16.3588221 C16.3010801,14.9095349 17.8119881,14.184742 19.7398485,14.184742 C21.6855761,14.184742 23.1906284,14.9093856 24.2604107,16.3588221 C25.0711931,17.4342923 25.4593176,19.0945234 25.4593176,21.3620578 L25.4593176,28.8025682 C25.4593176,31.0584581 25.0711931,32.7358573 24.2604107,33.7999816 L24.2604107,33.7999816 Z M21.5857297,20.5905377 C21.5857297,18.6212807 20.992207,17.6506105 19.7398485,17.6506105 C18.4936459,17.6506105 17.8941174,18.6212807 17.8881116,20.5905377 L17.8881116,29.5275104 C17.8881116,31.4913931 18.4936459,32.4793806 19.7398485,32.4793806 C20.992207,32.4793806 21.5857297,31.4913931 21.5857297,29.5275104 L21.5857297,20.5905377 Z M35.687938,35.681756 L35.687938,33.3670466 C34.1534573,35.120732 32.6778333,35.9740618 31.2735282,35.9740618 C30.0271755,35.9740618 29.1629415,35.4715586 28.7808228,34.3962376 C28.563413,33.7529559 28.4279823,32.7358573 28.4279823,31.2340207 L28.4341383,14.4415172 L32.2957146,14.4415172 L32.2957146,30.0771885 C32.2957146,30.9826198 32.2957146,31.4501896 32.3371546,31.5730536 C32.4251395,32.1749825 32.7312849,32.4793806 33.2486842,32.4793806 C34.0241825,32.4793806 34.8357156,31.8825275 35.687938,30.6791175 L35.6939438,14.4415172 L39.5675317,14.4415172 L39.5675317,35.681756 L35.687938,35.681756 Z" id="Fill-6" fill="#121513"></path>
        <path d="M113.564637,35.7168387 L109.373493,35.7168387 L109.373493,7.17059785 L115.257671,7.17059785 C119.954203,7.17059785 122.352918,9.50322176 122.352918,15.5870035 C122.352918,20.1811902 120.836304,22.0344506 119.413381,22.7882054 L122.958302,35.7168387 L118.702595,35.7168387 L115.727774,23.8989076 C115.186953,23.9745965 114.311308,24.0156507 113.564637,24.0156507 L113.564637,35.7168387 Z M113.564637,19.9830852 L115.051672,19.9830852 C117.314806,19.9830852 118.161773,18.9952469 118.161773,15.5871528 C118.161773,12.1917481 117.314806,11.2039099 115.051672,11.2039099 L113.564637,11.2039099 L113.564637,19.9830852 Z" id="Fill-7" fill="#121513"></path>
        <path d="M138.93582,20.9471866 L138.93582,29.3635922 C138.93582,31.3155319 139.07125,32.7246607 139.32995,33.6242697 C139.841344,35.1970181 140.869686,35.9973507 142.404167,35.9973507 C143.773938,35.9973507 145.10227,35.2434466 146.389913,33.659651 L146.389913,35.7116136 L150.233472,35.7116136 L150.233472,7.33436671 L146.389763,7.33436671 L146.389763,16.5984292 C145.14341,15.0786781 143.815228,14.3076059 142.404016,14.3076059 C140.869536,14.3076059 139.841344,15.1085357 139.3298,16.697855 C139.07125,17.5458104 138.93582,18.9421004 138.93582,20.9471866 M142.786135,20.643535 C142.786135,18.7380238 143.356385,17.7560078 144.461752,17.7560078 C145.10212,17.7560078 145.742938,18.0538372 146.389763,18.6908488 L146.389763,31.5730536 C145.742938,32.2160367 145.10212,32.5144633 144.461752,32.5144633 C143.356385,32.5144633 142.786135,31.5730536 142.786135,29.6675425" id="Fill-8" fill="#121513"></path>
        <path d="M136.114597,25.8336791 L136.114597,21.4616328 C136.114597,19.1994728 135.726473,17.5458104 134.920795,16.4757145 C133.845307,15.0322495 132.310977,14.3076059 130.377111,14.3076059 C128.40781,14.3076059 126.87348,15.0322495 125.762558,16.4757145 C124.939614,17.5458104 124.568906,19.1994728 124.568906,21.4616328 L124.568906,28.8670606 C124.568906,31.111306 124.986309,32.7709399 125.810004,33.8290928 C126.920926,35.27838 128.454656,35.9970521 130.471252,35.9970521 C132.481692,35.9970521 134.068723,35.2431481 135.1331,33.7063781 C135.603054,33.0280138 135.902593,32.2621667 136.026612,31.4148084 C136.067302,31.0288991 136.114747,30.1815408 136.114747,28.9423017 L136.114747,28.3872492 L132.181702,28.3872492 C132.181702,29.9243177 132.135007,30.7715267 132.099573,30.9823213 C131.876307,32.0049436 131.323324,32.5140154 130.377261,32.5140154 C129.054785,32.5140154 128.407961,31.5373738 128.407961,29.5794626 L128.407961,25.8336791 L136.114597,25.8336791 Z M128.40781,20.6899635 C128.40781,18.7380238 129.054785,17.7560078 130.341677,17.7560078 C131.617308,17.7560078 132.258276,18.7380238 132.258276,20.6899635 L132.258276,22.6478747 L128.40781,22.6478747 L128.40781,20.6899635 Z" id="Fill-9" fill="#121513"></path>
    </g>
</svg>
